<?xml version="1.0" standalone="no"?>
<!DOCTYPE svg PUBLIC "-//W3C//DTD SVG 20010904//EN"
 "http://www.w3.org/TR/2001/REC-SVG-20010904/DTD/svg10.dtd">
<svg version="1.0" xmlns="http://www.w3.org/2000/svg"
 width="1196.000000pt" height="1280.000000pt" viewBox="0 0 1196.000000 1280.000000"
 preserveAspectRatio="xMidYMid meet">
<metadata>
Created by potrace 1.15, written by Peter Selinger 2001-2017
</metadata>
<g transform="translate(0.000000,1280.000000) scale(0.100000,-0.100000)"
fill="#ff9800" stroke="none">
<path d="M6555 12614 c-363 -198 -1379 -755 -1382 -758 -3 -2 -20 -677 -34
-1373 l-13 -583 -410 -227 c-918 -508 -1250 -685 -1266 -674 -89 61 -1653
1013 -1670 1018 -8 2 -231 -115 -495 -260 -264 -145 -651 -357 -861 -471
l-381 -207 -7 -317 c-4 -174 -13 -618 -22 -986 -8 -367 -14 -670 -12 -671 2
-1 212 -129 468 -283 727 -438 1195 -728 1193 -739 -6 -29 -47 -1972 -42
-1976 6 -5 711 -436 1189 -727 228 -139 431 -263 451 -276 l36 -22 254 140
c140 77 526 288 857 469 l604 329 466 -284 c257 -156 631 -384 832 -506 273
-165 364 -225 362 -238 -4 -25 -19 -601 -31 -1222 -6 -300 -13 -590 -16 -646
l-5 -101 303 -184 c166 -101 545 -331 841 -511 l539 -327 41 21 c50 26 1157
630 1466 800 l225 124 6 290 c4 159 12 539 18 844 6 305 14 614 17 685 l6 130
411 224 c227 123 611 334 854 468 l441 244 6 112 c6 100 25 873 41 1597 l6
265 -158 95 c-87 52 -466 282 -842 511 l-684 415 2 150 c1 82 6 329 11 549 5
220 12 551 15 735 3 184 8 372 11 416 l6 82 336 183 c627 340 1357 741 1365
748 10 10 64 1968 55 1976 -2 1 -192 116 -423 256 -231 139 -607 367 -835 507
-370 227 -417 254 -440 245 -22 -8 -884 -477 -1464 -797 -169 -92 -212 -112
-220 -101 -6 7 -252 159 -546 338 -294 178 -669 405 -833 505 -164 100 -299
182 -300 182 -1 -1 -155 -84 -342 -186z"/>
</g>
</svg>
