<?xml version="1.0" standalone="no"?>
<!DOCTYPE svg PUBLIC "-//W3C//DTD SVG 20010904//EN"
 "http://www.w3.org/TR/2001/REC-SVG-20010904/DTD/svg10.dtd">
<svg version="1.0" xmlns="http://www.w3.org/2000/svg"
 width="917.000000pt" height="1280.000000pt" viewBox="0 0 917.000000 1280.000000"
 preserveAspectRatio="xMidYMid meet">
<metadata>
Created by potrace 1.15, written by Peter Selinger 2001-2017
</metadata>
<g transform="translate(0.000000,1280.000000) scale(0.100000,-0.100000)"
fill="#ff9800" stroke="none">
<path d="M3794 12789 c-1310 -36 -2342 -162 -2526 -309 -20 -17 -40 -30 -45
-30 -4 0 -27 -30 -51 -65 -33 -49 -52 -67 -80 -76 -60 -19 -125 -55 -151 -83
l-24 -25 1 -353 c1 -350 1 -353 23 -376 31 -33 70 -51 184 -87 58 -19 101 -38
102 -46 2 -8 -15 -26 -37 -41 -52 -36 -55 -74 -9 -112 17 -14 35 -26 40 -26 6
0 8 -84 7 -212 l-3 -211 -120 -65 c-395 -212 -606 -452 -622 -708 -7 -101 7
-164 58 -268 l39 -78 0 -3637 0 -3637 -35 -88 c-150 -372 -133 -753 49 -1108
64 -123 152 -253 216 -318 44 -45 70 -62 130 -84 314 -115 1003 -208 1950
-260 585 -33 883 -40 1695 -40 912 0 1331 12 2015 60 883 61 1536 168 1715
281 73 46 222 265 299 438 78 178 110 335 110 540 0 187 -28 316 -120 548 -15
39 -16 51 -6 67 9 15 12 785 12 3567 0 2294 -4 3543 -10 3533 -7 -10 -10 9
-10 62 0 69 4 86 34 145 178 350 -21 698 -561 987 l-118 62 -2 210 -3 209 40
27 c56 39 56 77 0 116 -22 15 -39 33 -37 41 1 8 44 27 103 46 56 17 117 41
136 53 72 45 68 21 69 411 l2 352 -24 25 c-26 28 -91 64 -151 83 -28 9 -47 27
-80 76 -24 35 -47 65 -51 65 -5 0 -25 13 -45 30 -268 214 -2222 361 -4108 309z"/>
</g>
</svg>
