<svg width="287" height="193" xmlns="http://www.w3.org/2000/svg" xmlns:xlink="http://www.w3.org/1999/xlink" overflow="hidden"><defs><clipPath id="clip0"><rect x="0" y="0" width="287" height="193"/></clipPath></defs><g clip-path="url(#clip0)"><rect x="0" y="0" width="287" height="193.279" fill="#353537"/><path d="M77 153.722 86.25 135.195 105.75 135.195 115 153.722 105.75 172.249 86.25 172.249Z" stroke="#FFC000" stroke-width="1.79896" stroke-linejoin="round" stroke-miterlimit="10" fill="none" fill-rule="evenodd"/><path d="M47 101.146 56 83.12 76 83.12 85 101.146 76 119.172 56 119.172Z" stroke="#FFC000" stroke-width="1.79896" stroke-linejoin="round" stroke-miterlimit="10" fill="none" fill-rule="evenodd"/><path d="M47 65.094 56 47.0679 75.0001 47.0679 84 65.094 75.0001 83.12 56 83.12Z" stroke="#FFC000" stroke-width="1.79896" stroke-linejoin="round" stroke-miterlimit="10" fill="none" fill-rule="evenodd"/><path d="M17 47.5686 26.25 29.0419 45.75 29.0419 55 47.5686 45.75 66.0953 26.25 66.0953Z" stroke="#FFC000" stroke-width="1.79896" stroke-linejoin="round" stroke-miterlimit="10" fill="none" fill-rule="evenodd"/><path d="M19 120.173 28 102.147 47 102.147 56 120.173 47 138.199 28 138.199Z" stroke="#FFC000" stroke-width="1.79896" stroke-linejoin="round" stroke-miterlimit="10" fill="none" fill-rule="evenodd"/><path d="M47 138.2 56 120.173 76 120.173 85 138.2 76 156.226 56 156.226Z" stroke="#FFC000" stroke-width="1.79896" stroke-linejoin="round" stroke-miterlimit="10" fill="none" fill-rule="evenodd"/><path d="M19 85.1229 28 67.0969 47 67.0969 56 85.1229 47 103.149 28 103.149Z" stroke="#FFC000" stroke-width="1.79896" stroke-linejoin="round" stroke-miterlimit="10" fill="none" fill-rule="evenodd"/><path d="M76 81.6178 85.25 63.091 104.75 63.091 114 81.6178 104.75 100.145 85.25 100.145Z" stroke="#FFC000" stroke-width="1.79896" stroke-linejoin="round" stroke-miterlimit="10" fill="none" fill-rule="evenodd"/></g></svg>